<svg width="363" height="47" viewBox="0 0 363 47" fill="none" xmlns="http://www.w3.org/2000/svg">
<path d="M21.9283 0.113073C15.7832 0.693234 9.63805 3.74968 5.74709 8.16458C-3.29829 18.3952 -1.46049 33.2673 9.81036 41.2197C12.4378 43.0733 15.295 44.3044 19.1285 45.2382C21.9426 45.9174 22.517 46.1155 23.2636 46.6533C23.5794 46.8796 23.8953 47.0354 23.9527 46.9931C24.1537 46.8796 24.6275 45.1535 24.886 43.6817C25.0439 42.7479 25.1444 40.894 25.2162 37.5971C25.2736 34.9934 25.3741 32.7436 25.4316 32.6022C25.5034 32.4605 25.6757 32.2907 25.8336 32.206C26.2356 31.9935 26.8531 32.2342 29.0354 33.4228C32.5098 35.319 33.1274 35.6161 33.1274 35.4039C33.1274 35.2908 33.2709 35.036 33.4575 34.8379C33.9314 34.286 34.6635 34.2436 36.6594 34.6821C37.5925 34.8943 38.4827 35.0924 38.6121 35.1209C38.8993 35.1633 38.8993 35.1915 37.9659 33.1823C37.6787 32.5881 37.3772 31.8522 37.3053 31.555C37.1187 30.8617 37.3199 30.0693 37.7935 29.7014L38.1382 29.4325L37.1333 28.7533C36.5875 28.3853 36.0418 27.9468 35.927 27.7769C35.6112 27.3381 35.6544 26.6589 36.0418 26.3195C36.329 26.0505 39.2294 24.7204 40.4929 24.2817C41.0816 24.0836 41.1245 23.9987 40.7944 23.7157C40.3492 23.3478 40.1339 22.7111 40.1914 21.9328C40.2633 21.1404 40.3781 20.9423 42.0579 18.749C42.5172 18.1405 42.8905 17.617 42.8905 17.5745C42.8905 17.5321 41.8569 17.5038 40.5934 17.5038C38.9136 17.5038 38.1526 17.4471 37.7935 17.3057C37.2481 17.0792 36.7599 16.4142 36.6305 15.7067L36.5446 15.2539L35.5107 15.9755C33.2279 17.5745 31.6343 18.5226 31.1315 18.5933C30.7009 18.6499 30.5142 18.5933 30.1408 18.282C29.423 17.6877 29.3225 17.1075 29.5811 15.2114C29.7678 13.9945 30.1122 10.9522 30.1122 10.6409C30.1122 10.6267 29.8393 10.6975 29.4949 10.8248C28.6909 11.1078 28.0018 10.9663 27.2837 10.3579C26.8244 9.97583 26.5084 9.45225 25.7618 7.85327C25.2449 6.73539 24.728 5.60337 24.6132 5.33451L24.3978 4.83926L24.0102 5.68828C22.0719 9.93336 21.7991 10.4145 21.0668 10.7824C20.5787 11.0371 19.588 11.0654 19.1716 10.839C18.8845 10.6833 18.8701 10.6975 18.9706 11.7163C19.028 12.2965 19.1716 13.5558 19.3008 14.5322C19.6023 16.7821 19.6023 17.4755 19.2865 17.9566C18.9706 18.4235 18.3245 18.6924 17.7358 18.5792C17.4774 18.5367 16.1278 17.7585 14.7494 16.8812L12.2368 15.2539L12.1507 15.6925C12.0358 16.2019 11.6481 16.7396 11.1025 17.1359C10.758 17.4047 10.4421 17.4472 8.2597 17.5038L5.80453 17.5745L6.16348 17.999C6.95315 18.9188 8.41766 21.0838 8.57559 21.5366C8.77658 22.145 8.57559 22.9799 8.07305 23.5601C7.87205 23.8006 7.71412 24.0129 7.71412 24.0553C7.71412 24.1402 10.8585 25.4562 11.5907 25.6968C12.323 25.9232 13.1701 26.6589 13.1701 27.0551C13.1701 27.6353 13.0265 27.8051 11.8779 28.626L10.758 29.4325L11.2461 29.8854C11.9927 30.5928 11.9353 31.2861 10.959 33.3945C10.5282 34.3001 10.2267 35.0501 10.2698 35.0501C10.3272 35.0501 11.1456 34.8802 12.0932 34.6963C13.0408 34.4982 13.9741 34.3427 14.1464 34.3427C14.6633 34.3427 15.4099 34.7388 15.6109 35.1209C15.7114 35.319 15.855 35.4745 15.9124 35.4745C15.9842 35.4745 17.4056 34.7388 19.0998 33.8474C21.1673 32.7436 22.3159 32.2201 22.6175 32.2201C23.321 32.2201 23.6081 32.6163 23.7374 33.7199C23.8666 35.0078 23.6943 39.0404 23.4215 40.5122C23.2205 41.6582 22.7323 43.1865 22.5313 43.314C22.4739 43.3422 21.8709 43.2855 21.2104 43.1723C16.5729 42.3941 12.1937 40.1017 8.96323 36.7482C6.32142 34.017 4.54104 30.6777 3.75138 26.9137C3.37808 25.1732 3.37808 21.2253 3.73701 19.4565C5.38817 11.3767 11.7774 5.13642 20.2484 3.3252C21.4976 3.05634 22.158 3.01387 24.6563 3.01387C27.8437 3.01387 29.0497 3.18368 31.5049 3.99024C37.6644 6.02788 42.7757 10.9522 44.757 16.7821C48.0451 26.4608 43.4649 36.8755 33.9314 41.3469C32.0649 42.2383 30.5428 42.7338 28.8344 43.0592C28.1595 43.1723 27.456 43.2996 27.2837 43.3422C26.9679 43.3987 26.9536 43.4695 26.9536 44.7289V46.059L27.5709 45.9882C36.8461 44.8987 44.8721 38.715 47.7579 30.4229C49.6963 24.8619 49.3516 18.8622 46.8245 13.5417C44.6565 9.02774 40.6077 4.99491 35.8697 2.64596C31.6772 0.580032 26.6521 -0.339737 21.9283 0.113073Z" fill="#F01428"/>
<path d="M176.208 10.0299C173.462 10.3586 171.349 10.9302 169.596 11.802C165.384 13.9171 163.314 17.1612 163.027 22.1632C162.883 24.6784 163.314 26.965 164.335 29.0229C165.945 32.2814 169.064 34.5109 173.318 35.4682C177.329 36.3688 183.94 36.0972 187.793 34.868L189 34.4964V32.6531V30.8237L187.764 31.2381C184.961 32.1814 181.066 32.7816 178.881 32.5958C174.77 32.2527 171.924 30.5949 170.472 27.6652C169.668 26.0361 169.394 24.5498 169.495 22.3775C169.581 20.4196 169.84 19.4192 170.602 17.8758C171.723 15.6035 173.821 14.1315 176.754 13.5741C179.427 13.0596 184.501 13.5598 188.324 14.7174L189 14.9175V12.8738V10.8445L188.138 10.673C186.01 10.2585 183.825 10.0727 180.376 10.0156C178.364 9.98701 176.481 10.0013 176.208 10.0299Z" fill="#2E2A25"/>
<path d="M79.4423 11.4439C79.3426 11.6936 76.9647 17.0208 74.1594 23.2775C71.3684 29.5342 69.0473 34.7366 69.0047 34.8199C68.9476 34.9585 69.4033 35 70.9697 35H73.0202L74.5155 31.74L75.9964 28.4799H81.7208H87.4307L88.8974 31.6846C89.7093 33.4463 90.4496 34.917 90.535 34.9447C90.6205 34.9862 92.1014 34.9862 93.8387 34.9723L97 34.9308L92.1726 24.1099C89.5099 18.1584 87.1033 12.7757 86.8185 12.1376L86.2918 11H82.9737H79.6416L79.4423 11.4439ZM83.6858 20.6417C84.8535 23.2082 85.7647 25.3307 85.7363 25.3723C85.6935 25.4001 83.7997 25.414 81.5215 25.4001L77.3776 25.3585L79.3997 20.6694C80.4961 18.1029 81.4502 15.9942 81.4928 15.9942C81.5357 15.9942 82.5324 18.0891 83.6858 20.6417Z" fill="#2E2A25"/>
<path d="M104 23.0001V35H107H110V23.0001V11H107H104V23.0001Z" fill="#2E2A25"/>
<path d="M123 23.4354V35.8565L125.666 35.8276L128.318 35.7847L128.359 30.5722L128.387 25.3739H130.997H133.608L137.585 30.687L141.577 36H144.796H148L145.969 33.3003C144.851 31.8213 142.917 29.2653 141.688 27.6285C140.445 25.9914 139.395 24.5554 139.354 24.4549C139.312 24.34 139.657 24.0241 140.293 23.6077C141.895 22.5594 142.945 21.4825 143.47 20.3768C143.911 19.4578 143.925 19.3572 143.925 17.6916C143.925 16.0258 143.911 15.9253 143.47 15.0063C142.682 13.3406 141.274 12.2349 138.953 11.4882L137.71 11.1005L130.362 11.0431L123 11V23.4354ZM134.533 14.3171C136.025 14.5181 136.909 14.8484 137.53 15.4371C138.29 16.1551 138.497 16.7295 138.497 18.0936C138.47 21.3102 136.771 22.2148 130.776 22.2148H128.387V18.1941V14.1735H130.983C132.406 14.1735 134.008 14.2452 134.533 14.3171Z" fill="#2E2A25"/>
<path d="M202.356 22.7588C199.454 29.2422 197.052 34.6426 197.01 34.7813C196.952 35.0034 197.095 35.0172 198.968 34.9895L200.998 34.948L202.47 31.7548L203.943 28.5617H209.704H215.465L216.938 31.7548L218.41 34.948L221.712 34.9895C223.513 35.0034 225 34.9757 225 34.92C225 34.8508 222.599 29.4642 219.668 22.9392L214.336 11.0694L210.976 11.0278L207.617 11L202.356 22.7588ZM212.134 20.8985C213.178 23.328 214.007 25.341 213.964 25.3688C213.921 25.4104 212.02 25.4243 209.733 25.4104L205.587 25.3688L207.745 20.6069C209.69 16.331 209.918 15.8868 210.075 16.1644C210.161 16.3449 211.091 18.469 212.134 20.8985Z" fill="#2E2A25"/>
<path d="M233.029 22.9584L233.071 34.9308L235.444 34.9723L237.832 35L237.86 25.9966L237.903 16.9931L245.861 25.9966L253.819 35H256.917H260V23.0001V11H257.584H255.169L255.14 19.5041L255.097 28.0083L247.424 19.5179L239.75 11.0139H236.368L233 11L233.029 22.9584Z" fill="#2E2A25"/>
<path d="M278.324 11.7214C276.772 15.1341 268 34.8752 268 34.9308C268 34.9723 268.909 34.9862 270.02 34.9723L272.037 34.9308L273.531 31.6985L275.01 28.4799H280.712H286.416L287.908 31.74L289.402 35H292.701H296L294.464 31.5596C293.626 29.6729 291.223 24.2764 289.116 19.5596L285.292 11H281.965H278.65L278.324 11.7214ZM282.619 20.5029C283.714 22.9446 284.667 25.0532 284.709 25.1781C284.809 25.414 284.552 25.4278 280.586 25.4278C278.012 25.4278 276.389 25.3723 276.418 25.303C276.846 24.1238 280.47 15.8971 280.528 15.9665C280.57 16.022 281.51 18.0613 282.619 20.5029Z" fill="#2E2A25"/>
<path d="M303 23V35L310.2 34.9578L317.39 34.9019L318.806 34.5234C321.442 33.8223 323.995 32.3084 325.54 30.528C327.326 28.4671 328.263 24.7943 327.936 21.0934C327.794 19.3411 327.496 18.2196 326.815 16.8318C325.454 14.0561 323.328 12.5 319.458 11.4626L318.096 11.0981L310.556 11.042L303 11V23ZM316.311 14.4346C319.005 15.1215 320.961 17.1822 321.812 20.2663C322.165 21.528 322.152 24.8504 321.796 26.1541C321.23 28.2149 319.827 30.0234 318.138 30.8645C316.664 31.6073 315.531 31.7896 312.114 31.8598L308.954 31.9299V23V14.0701L312.185 14.1402C314.483 14.1963 315.659 14.2803 316.311 14.4346Z" fill="#2E2A25"/>
<path d="M341.191 22.7503C338.378 29.2291 336.052 34.6257 336.009 34.7643C335.955 34.9862 336.093 35 337.908 34.9723L339.875 34.9308L341.303 31.74L342.744 28.5491H348.327H353.911L355.351 31.7676L356.808 35H359.896C362.806 35 363 34.9862 363 34.7504C363 34.6116 360.715 29.2291 357.9 22.7781L352.816 11.0694L349.561 11.0277L346.303 11L341.191 22.7503ZM350.239 20.6417L352.317 25.3585L348.286 25.4001C346.068 25.414 344.225 25.4001 344.185 25.3723C344.156 25.3307 345.016 23.1804 346.096 20.5723C347.191 17.9781 348.092 15.8694 348.12 15.8971C348.148 15.911 349.09 18.0613 350.239 20.6417Z" fill="#2E2A25"/>
</svg>
