<svg width="49" height="47" viewBox="0 0 49 47" fill="none" xmlns="http://www.w3.org/2000/svg">
<path d="M21.9283 0.113073C15.7832 0.693234 9.63805 3.74968 5.74709 8.16458C-3.29829 18.3952 -1.46049 33.2673 9.81036 41.2197C12.4378 43.0733 15.295 44.3044 19.1285 45.2382C21.9426 45.9174 22.517 46.1155 23.2636 46.6533C23.5794 46.8796 23.8953 47.0354 23.9527 46.9931C24.1537 46.8796 24.6275 45.1535 24.886 43.6817C25.0439 42.7479 25.1444 40.894 25.2162 37.5971C25.2736 34.9934 25.3741 32.7436 25.4316 32.6022C25.5034 32.4605 25.6757 32.2907 25.8336 32.206C26.2356 31.9935 26.8531 32.2342 29.0354 33.4228C32.5098 35.319 33.1274 35.6161 33.1274 35.4039C33.1274 35.2908 33.2709 35.036 33.4575 34.8379C33.9314 34.286 34.6635 34.2436 36.6594 34.6821C37.5925 34.8943 38.4827 35.0924 38.6121 35.1209C38.8993 35.1633 38.8993 35.1915 37.9659 33.1823C37.6787 32.5881 37.3772 31.8522 37.3053 31.555C37.1187 30.8617 37.3199 30.0693 37.7935 29.7014L38.1382 29.4325L37.1333 28.7533C36.5875 28.3853 36.0418 27.9468 35.927 27.7769C35.6112 27.3381 35.6544 26.6589 36.0418 26.3195C36.329 26.0505 39.2294 24.7204 40.4929 24.2817C41.0816 24.0836 41.1245 23.9987 40.7944 23.7157C40.3492 23.3478 40.1339 22.7111 40.1914 21.9328C40.2633 21.1404 40.3781 20.9423 42.0579 18.749C42.5172 18.1405 42.8905 17.617 42.8905 17.5745C42.8905 17.5321 41.8569 17.5038 40.5934 17.5038C38.9136 17.5038 38.1526 17.4471 37.7935 17.3057C37.2481 17.0792 36.7599 16.4142 36.6305 15.7067L36.5446 15.2539L35.5107 15.9755C33.2279 17.5745 31.6343 18.5226 31.1315 18.5933C30.7009 18.6499 30.5142 18.5933 30.1408 18.282C29.423 17.6877 29.3225 17.1075 29.5811 15.2114C29.7678 13.9945 30.1122 10.9522 30.1122 10.6409C30.1122 10.6267 29.8393 10.6975 29.4949 10.8248C28.6909 11.1078 28.0018 10.9663 27.2837 10.3579C26.8244 9.97583 26.5084 9.45225 25.7618 7.85327C25.2449 6.73539 24.728 5.60337 24.6132 5.33451L24.3978 4.83926L24.0102 5.68828C22.0719 9.93336 21.7991 10.4145 21.0668 10.7824C20.5787 11.0371 19.588 11.0654 19.1716 10.839C18.8845 10.6833 18.8701 10.6975 18.9706 11.7163C19.028 12.2965 19.1716 13.5558 19.3008 14.5322C19.6023 16.7821 19.6023 17.4755 19.2865 17.9566C18.9706 18.4235 18.3245 18.6924 17.7358 18.5792C17.4774 18.5367 16.1278 17.7585 14.7494 16.8812L12.2368 15.2539L12.1507 15.6925C12.0358 16.2019 11.6481 16.7396 11.1025 17.1359C10.758 17.4047 10.4421 17.4472 8.2597 17.5038L5.80453 17.5745L6.16348 17.999C6.95315 18.9188 8.41766 21.0838 8.57559 21.5366C8.77658 22.145 8.57559 22.9799 8.07305 23.5601C7.87205 23.8006 7.71412 24.0129 7.71412 24.0553C7.71412 24.1402 10.8585 25.4562 11.5907 25.6968C12.323 25.9232 13.1701 26.6589 13.1701 27.0551C13.1701 27.6353 13.0265 27.8051 11.8779 28.626L10.758 29.4325L11.2461 29.8854C11.9927 30.5928 11.9353 31.2861 10.959 33.3945C10.5282 34.3001 10.2267 35.0501 10.2698 35.0501C10.3272 35.0501 11.1456 34.8802 12.0932 34.6963C13.0408 34.4982 13.9741 34.3427 14.1464 34.3427C14.6633 34.3427 15.4099 34.7388 15.6109 35.1209C15.7114 35.319 15.855 35.4745 15.9124 35.4745C15.9842 35.4745 17.4056 34.7388 19.0998 33.8474C21.1673 32.7436 22.3159 32.2201 22.6175 32.2201C23.321 32.2201 23.6081 32.6163 23.7374 33.7199C23.8666 35.0078 23.6943 39.0404 23.4215 40.5122C23.2205 41.6582 22.7323 43.1865 22.5313 43.314C22.4739 43.3422 21.8709 43.2855 21.2104 43.1723C16.5729 42.3941 12.1937 40.1017 8.96323 36.7482C6.32142 34.017 4.54104 30.6777 3.75138 26.9137C3.37808 25.1732 3.37808 21.2253 3.73701 19.4565C5.38817 11.3767 11.7774 5.13642 20.2484 3.3252C21.4976 3.05634 22.158 3.01387 24.6563 3.01387C27.8437 3.01387 29.0497 3.18368 31.5049 3.99024C37.6644 6.02788 42.7757 10.9522 44.757 16.7821C48.0451 26.4608 43.4649 36.8755 33.9314 41.3469C32.0649 42.2383 30.5428 42.7338 28.8344 43.0592C28.1595 43.1723 27.456 43.2996 27.2837 43.3422C26.9679 43.3987 26.9536 43.4695 26.9536 44.7289V46.059L27.5709 45.9882C36.8461 44.8987 44.8721 38.715 47.7579 30.4229C49.6963 24.8619 49.3516 18.8622 46.8245 13.5417C44.6565 9.02774 40.6077 4.99491 35.8697 2.64596C31.6772 0.580032 26.6521 -0.339737 21.9283 0.113073Z" fill="#F01428"/>
</svg>
